Coordinates
version=1
nRows=32
nColumns=22
inDegrees=yes

Units are S.I. units (second, meters, Newtons, ...)
If the header above contains a line with 'inDegrees', this indicates whether rotational values are in degrees (yes) or radians (no).

endheader
time	pelvis_tilt	pelvis_list	pelvis_rotation	pelvis_tx	pelvis_ty	pelvis_tz	hip_flexion_r	hip_adduction_r	hip_rotation_r	knee_angle_r	ankle_angle_r	subtalar_angle_r	hip_flexion_l	hip_adduction_l	hip_rotation_l	knee_angle_l	ankle_angle_l	subtalar_angle_l	lumbar_extension	lumbar_bending	lumbar_rotation
      1.26000000	      0.35215859	     -2.19642644	      2.06399272	     -0.92464148	      0.91013063	     -0.16936331	     30.70836436	      2.20383917	    -12.71079892	    -36.07627416	     -2.00117193	      1.99248128	     -9.89154164	      0.41350516	     -5.34148654	    -14.18662382	     17.22118631	     -0.41414406	    -11.50441952	      1.59312893	    -17.52170458
      1.27000000	      0.21987167	     -2.15800443	      2.22098511	     -0.91893197	      0.90881903	     -0.16945138	     30.28818409	      2.37067569	    -13.79813595	    -32.79702545	     -1.78643064	      2.18464555	    -10.20939892	      0.40783314	     -5.31574266	    -14.06030579	     17.34680449	     -0.29498350	    -11.40027630	      1.49812853	    -17.84780613
      1.28000000	      0.05134706	     -2.08664184	      2.36187783	     -0.91308749	      0.90732455	     -0.16942999	     29.89620982	      2.54518779	    -14.82689434	    -29.54443263	     -1.55407367	      2.42914141	    -10.48495180	      0.43308212	     -5.30277810	    -13.96946509	     17.47798019	     -0.16932181	    -11.25075656	      1.35604349	    -18.14353408
      1.29000000	     -0.15170713	     -1.98543977	      2.49213628	     -0.90712804	      0.90566155	     -0.16932298	     29.55307011	      2.71659078	    -15.79892069	    -26.38404003	     -1.31488796	      2.70005791	    -10.71456459	      0.48655159	     -5.30007498	    -13.92015317	     17.62001080	     -0.04794806	    -11.06195735	      1.17775996	    -18.42081336
      1.30000000	     -0.38203358	     -1.85631116	      2.60560461	     -0.90103869	      0.90385785	     -0.16910672	     29.27346197	      2.87669598	    -16.72687930	    -23.39004919	     -1.07681660	      2.94859848	    -10.91285892	      0.56566349	     -5.31998722	    -13.90120623	     17.77198445	      0.06648525	    -10.84120297	      0.95696965	    -18.68576155
      1.31000000	     -0.61133606	     -1.70855190	      2.70140062	     -0.89482497	      0.90197701	     -0.16881828	     29.04451216	      3.02204624	    -17.62208913	    -20.63222695	     -0.83412678	      3.13721889	    -11.10818722	      0.66397766	     -5.34651832	    -13.91369486	     17.91862231	      0.18936891	    -10.62622956	      0.71734820	    -18.90202395
      1.32000000	     -0.84476942	     -1.55042985	      2.77672062	     -0.88846843	      0.90003677	     -0.16845840	     28.89094731	      3.14942415	    -18.50178510	    -18.18675897	     -0.58716411	      3.21307700	    -11.30107581	      0.77381539	     -5.38843746	    -13.94573133	     18.05396875	      0.30457394	    -10.40814544	      0.46768748	    -19.08299221
      1.33000000	     -1.05181673	     -1.39172878	      2.83288941	     -0.88196456	      0.89810749	     -0.16803249	     28.79179978	      3.26054725	    -19.38234246	    -16.11547660	     -0.33616271	      3.16717295	    -11.52236176	      0.88256224	     -5.44793663	    -13.99960721	     18.17838019	      0.42592803	    -10.22504792	      0.22321448	    -19.22741434
      1.34000000	     -1.18821651	     -1.23443840	      2.86045941	     -0.87529554	      0.89628219	     -0.16756135	     28.69907506	      3.35933396	    -20.22634769	    -14.45692454	     -0.06432142	      2.92996922	    -11.82732647	      0.99019594	     -5.53569856	    -14.06098577	     18.28032293	      0.60890356	    -10.12961334	     -0.00424214	    -19.33495402
      1.35000000	     -1.33722110	     -1.09995589	      2.87970285	     -0.86845481	      0.89446251	     -0.16709269	     28.72375404	      3.43091793	    -21.10351842	    -13.29015227	      0.20313710	      2.71731348	    -12.10720529	      1.07474423	     -5.62385838	    -14.16335747	     18.35427744	      0.71035393	    -10.01725982	     -0.18847659	    -19.41177740
      1.36000000	     -1.40625955	     -0.98512075	      2.86150883	     -0.86139015	      0.89280824	     -0.16657753	     28.72604135	      3.50806028	    -21.86453555	    -12.55808790	      0.47341412	      2.31113189	    -12.49353105	      1.14254490	     -5.71094779	    -14.25142255	     18.36380624	      0.88043766	     -9.99469718	     -0.33122220	    -19.44196207
      1.37000000	     -1.44942291	     -0.87783885	      2.83483614	     -0.85412174	      0.89123978	     -0.16610730	     28.78460335	      3.53512270	    -22.55689555	    -12.32222195	      0.75387726	      1.99553643	    -12.89750101	      1.20437447	     -5.77964478	    -14.38145450	     18.34698462	      1.00491722	     -9.99737331	     -0.43660101	    -19.46479401
      1.38000000	     -1.45093778	     -0.78656091	      2.79474155	     -0.84658446	      0.88979520	     -0.16564890	     28.84335137	      3.53614720	    -23.09121697	    -12.50648509	      1.07489264	      1.67458824	    -13.34133618	      1.24628181	     -5.84286339	    -14.54892978	     18.24444850	      1.12517146	    -10.03304136	     -0.49918855	    -19.48061229
      1.39000000	     -1.40937132	     -0.72020354	      2.73225687	     -0.83875753	      0.88850400	     -0.16522409	     28.88893337	      3.52316678	    -23.46908525	    -13.06204317	      1.28924912	      1.16719096	    -13.85013040	      1.26892718	     -5.86111396	    -14.70693094	     18.07507236	      1.28944109	    -10.10051625	     -0.50237851	    -19.46701533
      1.40000000	     -1.35099915	     -0.67109856	      2.67252811	     -0.83061181	      0.88732870	     -0.16483889	     28.92716883	      3.48418759	    -23.67575634	    -13.92083679	      1.55918477	      0.73502594	    -14.35925400	      1.26505755	     -5.87224418	    -14.92979539	     17.80105524	      1.43028753	    -10.15976794	     -0.45815601	    -19.47097309
      1.41000000	     -1.26837695	     -0.65906575	      2.59730497	     -0.82211450	      0.88632495	     -0.16447799	     28.92542470	      3.46208030	    -23.74786634	    -14.97062354	      1.70186412	     -0.04899772	    -14.92179969	      1.22788735	     -5.81004833	    -15.12864186	     17.45513459	      1.66606859	    -10.21560639	     -0.34185364	    -19.46154526
      1.42000000	     -1.18517025	     -0.68738461	      2.52707731	     -0.81326987	      0.88547913	     -0.16411573	     28.90164396	      3.45878589	    -23.72333130	    -16.14652300	      1.82384825	     -0.85444754	    -15.46560093	      1.13581216	     -5.73435238	    -15.39236544	     16.98983811	      1.91823763	    -10.23911844	     -0.16031986	    -19.45119633
      1.43000000	     -1.10346221	     -0.76026540	      2.45554891	     -0.80407310	      0.88482640	     -0.16372287	     28.84539792	      3.49504588	    -23.64292569	    -17.35976559	      1.88066844	     -1.81259401	    -15.99793921	      0.98829270	     -5.62366887	    -15.69809749	     16.39032861	      2.23250316	    -10.22712080	      0.08668238	    -19.43852950
      1.44000000	     -1.03780241	     -0.88039805	      2.37838504	     -0.79455108	      0.88438768	     -0.16328128	     28.76708087	      3.58251668	    -23.53458564	    -18.54290140	      1.83196347	     -2.86339154	    -16.49058892	      0.78401853	     -5.47599267	    -16.06190458	     15.65005400	      2.60160157	    -10.16554024	      0.39733505	    -19.41053813
      1.45000000	     -0.99835624	     -1.04670040	      2.28605054	     -0.78472938	      0.88417511	     -0.16275739	     28.67551222	      3.73247979	    -23.40665545	    -19.65254639	      1.66471119	     -3.97668238	    -16.91683799	      0.52535585	     -5.31281202	    -16.50815291	     14.77075569	      3.02999738	    -10.04517118	      0.76506333	    -19.36694586
      1.46000000	     -0.98815497	     -1.24524895	      2.16382815	     -0.77462700	      0.88419578	     -0.16213044	     28.58036323	      3.93710990	    -23.25409398	    -20.69236892	      1.42524801	     -5.11571185	    -17.26158287	      0.23072595	     -5.16075766	    -17.05280042	     13.74587421	      3.52797900	     -9.86295903	      1.17138120	    -19.30891164
      1.47000000	     -1.01297347	     -1.43594477	      1.99065642	     -0.76434422	      0.88448776	     -0.16136846	     28.47496627	      4.18299347	    -22.97535450	    -21.62246095	      1.06576608	     -6.11775342	    -17.49496112	     -0.04378658	     -4.96473240	    -17.72470832	     12.50536144	      4.04798033	     -9.62974672	      1.56113362	    -19.18996402
      1.48000000	     -1.06237182	     -1.62350195	      1.78344373	     -0.75386125	      0.88500724	     -0.16048791	     28.36166784	      4.45018333	    -22.67305711	    -22.50829798	      0.82070154	     -7.08865916	    -17.59389445	     -0.32271605	     -4.82882094	    -18.58527426	     11.09221031	      4.66173269	     -9.34799548	      1.94373188	    -19.06700374
      1.49000000	     -1.13765013	     -1.76078899	      1.50800730	     -0.74327434	      0.88578662	     -0.15945902	     28.22427320	      4.72311785	    -22.23327681	    -23.30790020	      0.57689541	     -7.89027943	    -17.55702597	     -0.53246950	     -4.66614483	    -19.61654804	      9.43996128	      5.30550242	     -9.03182947	      2.25860222	    -18.88263258
      1.50000000	     -1.22341290	     -1.84448306	      1.18645037	     -0.73260421	      0.88680519	     -0.15831852	     28.04323530	      4.97815482	    -21.73678745	    -24.03640445	      0.43996098	     -8.58519445	    -17.37474512	     -0.68211551	     -4.49233534	    -20.85455844	      7.54587131	      6.02002455	     -8.69743703	      2.50534125	    -18.67194703
      1.51000000	     -1.29425061	     -1.83863710	      0.80200322	     -0.72194161	      0.88806727	     -0.15704470	     27.78814760	      5.19341399	    -21.12866711	    -24.67999049	      0.38763526	     -9.15763330	    -17.05887194	     -0.72882569	     -4.30174721	    -22.30624162	      5.40284661	      6.79620934	     -8.38564129	      2.63944463	    -18.42398474
      1.52000000	     -1.35317175	     -1.76861031	      0.39401145	     -0.71129352	      0.88951625	     -0.15567952	     27.45763316	      5.36354438	    -20.52529146	    -25.23826511	      0.47167335	     -9.67025134	    -16.59180689	     -0.71409646	     -4.06783746	    -23.97640123	      3.02187186	      7.70162439	     -8.08418340	      2.68936494	    -18.15871628
      1.53000000	     -1.39414726	     -1.63811252	     -0.02429047	     -0.70073929	      0.89109266	     -0.15427179	     27.05241099	      5.48283513	    -19.93003970	    -25.70814720	      0.69146922	    -10.13298198	    -15.96508314	     -0.64359760	     -3.78320497	    -25.87468337	      0.47519928	      8.78747339	     -7.80860634	      2.66899634	    -17.89160635
      1.54000000	     -1.39226680	     -1.42947161	     -0.46987289	     -0.69034165	      0.89279207	     -0.15276318	     26.55638340	      5.54308960	    -19.29511118	    -26.09988415	      0.99281314	    -10.48039130	    -15.21001896	     -0.49773414	     -3.48119381	    -27.96487453	     -2.20904921	      9.93351665	     -7.59317577	      2.54123491	    -17.59988616
      1.55000000	     -1.35261737	     -1.16824418	     -0.91989417	     -0.68013502	      0.89453912	     -0.15119761	     25.98754099	      5.54991701	    -18.66757606	    -26.42732039	      1.38651592	    -10.74091170	    -14.31699592	     -0.31289760	     -3.17488317	    -30.24525881	     -4.93053272	     11.12761627	     -7.43226342	      2.34200005	    -17.29723254
      1.56000000	     -1.26004072	     -0.85979998	     -1.38311335	     -0.67015638	      0.89631588	     -0.14954180	     25.34501831	      5.50857299	    -18.03654454	    -26.70993166	      1.82528057	    -10.90947908	    -13.31150721	     -0.10055915	     -2.91550837	    -32.68825836	     -7.64225748	     12.20104413	     -7.34821210	      2.06758739	    -16.97376506
      1.57000000	     -1.16327933	     -0.57024683	     -1.79818078	     -0.66040093	      0.89799079	     -0.14785606	     24.67054654	      5.45677622	    -17.51451649	    -26.92858219	      2.41128212	    -11.02974620	    -12.12864300	      0.04103765	     -2.69235855	    -35.32593951	    -10.19235752	     13.26090194	     -7.27612953	      1.79928352	    -16.66632130
